<svg version="1.2" xmlns="http://www.w3.org/2000/svg" viewBox="0 0 312 312" width="16" height="16" fill="currentColor">
  <g id="Layer_1-2">
    <g id="ICON_Concept">
      <path id="Subtraction_15" fill-rule="evenodd" class="s0"
            d="m267.7 309.2h-228.2c-22.9-0.1-41.5-18.6-41.5-41.5v-228.2c0-22.9 18.6-41.5 41.5-41.5h228.2c22.9 0 41.4 18.6 41.5 41.5v228.2c-0.1 22.9-18.6 41.4-41.5 41.5zm-220.3-289.5c-14.3 0-25.9 11.7-25.9 26v215.8c0 14.3 11.6 26 25.9 26h3.7c14.4 0 26-11.7 26-26v-215.8c0-14.4-11.7-26-26-26z"/>
    </g>
  </g>
</svg>
