<svg version="1.2" xmlns="http://www.w3.org/2000/svg" viewBox="0 0 341 250" width="16" height="16" fill="currentColor">
  <g id="Layer_1-2">
    <path id="Union_2" class="s0"
          d="m32.2 211.4v-63.8c-23.4-10.8-33.7-38.4-22.9-61.8 7.5-16.5 24.1-27.2 42.3-27.2h73.1l63.6-30v-2.8c0-11.3 9.1-20.4 20.4-20.4 11.2 0 20.3 9.1 20.3 20.4v59.5h0.4c11.1 0 20 8.9 20 19.9 0 11.1-8.9 20-20 20h-0.4v59.5c0 11.2-9.1 20.3-20.4 20.3-11.2 0-20.3-9.1-20.3-20.3v-3.4l-62.4-29.5h-66.6v59.6c0 7.5-6.1 13.6-13.6 13.6-7.5 0-13.5-6.1-13.5-13.6zm247.7-44.2l-33-15.4c-5-2.4-7.2-8.3-4.9-13.3 2.4-5 8.3-7.2 13.3-4.9l33 15.4c5 2.3 7.2 8.3 4.9 13.3-2.4 5-8.3 7.2-13.4 4.9 0 0 0.1 0 0.1 0zm-7.1-54c-5.5-0.1-9.9-4.7-9.7-10.2 0.1-5.3 4.4-9.6 9.7-9.8h33.4c5.5 0.2 9.9 4.7 9.8 10.3-0.1 5.3-4.4 9.6-9.8 9.7zm-30.6-40.9c-2.3-5-0.1-10.9 4.9-13.3l33-15.3c5-2.4 11-0.2 13.3 4.8 2.3 5 0.2 11-4.9 13.3l-33 15.4c-5 2.3-10.9 0.2-13.3-4.8z"/>
  </g>
</svg>
